<svg width="260" height="260" version="1.1" viewBox="0 0 68.542 68.601" xmlns="http://www.w3.org/2000/svg">
 <g transform="matrix(5.109 0 0 5.109 -113.74 -227.96)">
  <path d="m26.805 46.488v-0.52959l0.52884-3.81e-4 0.52662-0.0046v1.0641h-1.0555z" style="fill:#fc3;stroke-width:.093248"/>
  <path d="m28.815 46.517v-0.99899l1.015 0.0043 1.03-3.4e-5 -0.0019 0.59375-0.0016 0.61211-0.39807 4.28e-4 -0.4086-0.0035-0.0043 0.40004-0.0043 0.39372h-0.6043l-0.62317 0.0036z" style="fill:#3c3;stroke-width:.062516"/>
  <path d="m24.435 49.242v-1.8074h3.6596l-0.0082 1.6075-1.4815 0.0083v1.999h-2.1697z" style="fill:#36f;stroke-width:.19787"/>
  <path d="m31.357 49.611-0.0047-0.50986-1.1469-0.01743-0.0045-1.0938-0.0045-1.0938h3.2647v3.2248h-2.0993z" style="fill:#90f;stroke-width:.73997"/>
  <path d="m30.126 55.393c-0.2989-0.06511-0.38859-0.12697-0.34878-0.24056 0.02597-0.07414 0.10404-0.08077 0.30073-0.02553 0.294 0.08256 0.59737 0.06408 0.59737-0.03639 0-0.04948-0.07197-0.07829-0.33916-0.13576-0.57955-0.12468-0.73906-0.43805-0.31037-0.6098 0.41328-0.16559 1.1887 0.0415 0.83206 0.2222l-0.07201 0.03648-0.13238-0.04312c-0.16584-0.05401-0.40173-0.04707-0.44338 0.01308-0.04095 0.05913-0.02545 0.06634 0.30887 0.14385 0.53422 0.12386 0.68707 0.31416 0.44263 0.55116-0.12478 0.121-0.5563 0.18524-0.83561 0.1244zm1.4224-0.02223c-0.27507-0.10036-0.40546-0.29289-0.38598-0.56996l0.02937-0.15501 0.0609-0.10696c0.1827-0.32088 0.79332-0.3428 1.0975-0.08885 0.42613 0.35579 0.14344 0.93465-0.46902 0.96043l-0.19797-0.0052zm0.50752-0.27591c0.31583-0.2249-0.0107-0.70299-0.3575-0.54057-0.31594 0.14798-0.19151 0.61432 0.16534 0.61966l0.10682-0.01829zm2.5593 0.28489c-0.22354-0.08782-0.27708-0.1865-0.29498-0.54363l-0.01397-0.27868-0.13398-0.02469c-0.35934-0.0663-0.19148-0.25149-0.01129-0.25566 0.11853-5.02e-4 0.1673-0.01124 0.17313-0.10909 0.01452-0.24343 0.36068-0.25475 0.36068-0.02091 0 0.11294 0.04011 0.13037 0.30012 0.13037h0.2358l0.05359 0.04854c0.06586 0.05965 0.01275 0.1374 0.0053 0.14571l-0.04827 0.05401-0.25318 0.01277c-0.29659 0.01496-0.29243 0.01134-0.29296 0.25551-7.1e-4 0.33728 0.06356 0.40008 0.38425 0.37533 0.23088-0.01782 0.32597 0.03751 0.25908 0.15073-0.05714 0.09671-0.52985 0.13573-0.72332 0.05971zm-11.713-0.0089c-0.1196-0.03283-0.21326-0.10223-0.26719-0.19799l-0.03172-0.10392-0.02032-0.36429v-0.37585l0.05956-0.03778c0.07408-0.04702 0.15554-0.04824 0.22338-0.0034l0.05202 0.0344 0.01354 0.36834 0.01354 0.36834c0.01424 0.05712 0.0093 0.04111 0.02832 0.06043 0.08196 0.08343 0.40421 2e-3 0.47889-0.09445l0.04181-0.05408v-0.64189l0.05955-0.03779c0.0757-0.04803 0.15354-0.04803 0.22924 0l0.05956 0.03779v0.46728c0 0.56197-0.06163 0.68743-0.27096 0.54573l-0.06841-0.03406-0.1467 0.05327c-0.16445 0.05972-0.3322 0.04325-0.45412 0.0098zm2.9971-0.0011c-0.75479-0.20586-0.37423-1.2878 0.38609-1.0976 0.13407 0.03353 0.15615 5e-3 0.15615-0.20123 0-0.24662 0.1842-0.37588 0.31129-0.21844l0.03705 0.04589v0.67296c0 0.81987-0.0032 0.82936-0.26081 0.77012l-0.10693-0.02457-0.12522 0.03851c-0.1343 0.04131-0.27957 0.04655-0.39763 0.01435zm0.4088-0.2552c0.11094-0.05196 0.13345-0.10506 0.13345-0.31479v-0.18474l-0.06577-0.05957c-0.12851-0.1164-0.3971-0.0634-0.47993 0.09472-0.15982 0.30506 0.1081 0.60684 0.41226 0.46436zm1.2187 0.25568c-0.67961-0.15826-0.7088-0.909-0.04212-1.0847 0.42739-0.11264 0.85942 0.11023 0.85942 0.44336v0.10408l-0.0097 0.07612-0.10941-5.04e-4h-0.39682l-0.4174-0.0029-0.0036 0.04104c-4e-3 0.04769 0.06306 0.12286 0.17056 0.17321 0.07695 0.03604 0.20088 0.03429 0.51772-0.0073l0.10952-0.0027 0.05397 0.04752 0.0014 0.06672-0.05654 0.06109c-0.10012 0.1082-0.46157 0.13516-0.67707 0.08498zm0.44213-0.75023c0-0.06649-0.11477-0.12416-0.24692-0.12406-0.12738 3.7e-5 -0.31985 0.07078-0.31985 0.12932l-0.01851 0.04608 0.31732-0.0055h0.26796zm0.60508 0.73818-0.04234-0.06135v-0.45652c0-0.49229 0.0078-0.52304 0.14062-0.55202l0.09349 0.0235 0.1149 0.11034s0.03808 0.01465 0.19018-0.04523c0.28168-0.11088 0.613-0.08808 0.613 0.04217 0 0.10125-0.04581 0.1253-0.23982 0.12589-0.20081 5.92e-4 -0.35145 0.05293-0.46142 0.16024l-0.07153 0.0698-0.0089 0.2719c-0.0097 0.29622-0.01988 0.31758-0.16223 0.3385l-0.06787 0.0041zm4.4058-0.01282-0.05359-0.04854v-0.72937l-0.06874-0.02367c-0.03781-0.01301-0.10172-0.02367-0.14202-0.02367-0.09328 0-0.1376-0.04038-0.1376-0.12536 0-0.07855 0.0632-0.11718 0.1925-0.11773 0.11729-5.03e-4 0.13899-0.01722 0.17757-0.13694 0.06767-0.20996 0.36318-0.34364 0.69717-0.31539 0.41994 0.03554 0.43204 0.24639 0.01413 0.24639l-0.20865 0.01623-0.06718 0.03098c-0.03817 0.0176-0.0541 0.06959-0.04974 0.09708l0.0079 0.04988 0.2003 0.0072c0.42081 0.01523 0.42278 0.23858 0.0022 0.25825-0.25604 0.01197-0.24276-0.01064-0.24276 0.41416v0.37337l-0.05955 0.03778c-0.08207 0.05206-0.19789 0.04731-0.262-0.01075zm-8.8303-0.0353-0.06577-0.05957v-0.90021l0.05358-0.04854c0.06881-0.06232 0.13542-0.06146 0.22579 0.0029l0.07223 0.05148 0.1731-0.05148c0.21916-0.06518 0.35497-0.06504 0.52315 5.03e-4l0.13332 0.05196 0.07262 0.11188 0.0726 0.11188-0.0053 0.34974-0.0053 0.34975-0.04129 0.03739c-0.05058 0.04582-0.20921 0.04897-0.2673 0.0053l-0.0427-0.03209-1.38e-4 -0.28222c-1.37e-4 -0.43006-0.04116-0.51278-0.25372-0.51278-0.27649 0-0.33101 0.07878-0.34167 0.4937l-0.0073 0.28739-0.06327 0.04635c-0.08497 0.06226-0.15369 0.05837-0.23271-0.01322z" clip-rule="evenodd" fill-rule="evenodd" style="stroke-width:.73997"/>
  <text  fill-rule="evenodd" clip-rule="evenodd" transform="scale(1.1334 .88234)" x="19.828758" y="64.347633" style="font-family:sans-serif;font-size:5.3346px;letter-spacing:0px;line-height:125%;stroke-width:.13337px;word-spacing:0px" xml:space="preserve"><tspan x="19.828758" y="64.347633" style="font-family:'Cascadia Code';font-size:1.7782px;font-variant-caps:normal;font-variant-east-asian:normal;font-variant-ligatures:normal;font-variant-numeric:normal;font-variation-settings:'wght' 300;stroke-width:.13337px">development</tspan></text>
  <path d="m26.832 51.402v-2.134h4.3361v4.2679h-4.3361z" style="fill:#f03;stroke-width:.76398"/>
  <text  fill-rule="evenodd" clip-rule="evenodd" x="30.97579" y="58.698082" style="font-family:sans-serif;font-size:4.8584px;letter-spacing:0px;line-height:125%;stroke-width:.12146px;word-spacing:0px" xml:space="preserve"><tspan style="stroke-width:.12146px"/></text>
 </g>
</svg>
