<svg width="260" height="260" version="1.1" viewBox="0 0 68.793 68.79" xmlns="http://www.w3.org/2000/svg">
 <g transform="matrix(2.1784 0 0 2.1784 -45.901 -91.18)">
  <path d="m31.605 47.404v-1.2749l1.2731-9.17e-4 1.2678-0.01107v2.5617h-2.5409z" style="fill:#fc3;stroke-width:.22448"/>
  <path d="m36.443 47.474v-2.4049l2.4435 0.01036 2.4796-8.2e-5 -0.0046 1.4294-0.0039 1.4736-0.9583 1e-3 -0.98365-0.0084-0.01036 0.96304-0.01035 0.94782h-1.4548l-1.5002 0.0086z" style="fill:#3c3;stroke-width:.1505"/>
  <path d="m25.899 54.034v-4.3512h8.81l-0.0196 3.8698-3.5665 0.01998v4.8124h-5.2232z" style="fill:#36f;stroke-width:.47634"/>
  <path d="m42.563 54.923-0.01132-1.2274-2.7611-0.04196-0.01084-2.6332-0.01084-2.6333h7.8593v7.7633h-5.0537z" style="fill:#90f;stroke-width:1.7814"/>
  <path d="m39.599 68.842c-0.71956-0.15674-0.93547-0.30566-0.83965-0.57912 0.06252-0.17848 0.25045-0.19444 0.72397-0.06146 0.70776 0.19875 1.4381 0.15426 1.4381-0.0876 0-0.11912-0.17326-0.18847-0.81647-0.32683-1.3952-0.30014-1.7792-1.0546-0.74718-1.468 0.99492-0.39864 2.8616 0.09991 2.0031 0.53492l-0.17335 0.08782-0.3187-0.1038c-0.39925-0.13002-0.96712-0.11332-1.0674 0.03149-0.09858 0.14235-0.06127 0.15971 0.74356 0.3463 1.2861 0.29817 1.654 0.75631 1.0656 1.3268-0.3004 0.29128-1.3392 0.44593-2.0116 0.29947zm3.4242-0.05352c-0.6622-0.24161-0.97609-0.7051-0.9292-1.3721l0.0707-0.37316 0.14661-0.25749c0.43982-0.77247 1.9098-0.82525 2.642-0.21389 1.0258 0.85651 0.34531 2.25-1.1291 2.3121l-0.47658-0.01252zm1.2218-0.66421c0.76032-0.54142-0.02576-1.6924-0.86062-1.3014-0.76058 0.35625-0.46102 1.4789 0.39804 1.4918l0.25715-0.04403zm6.1611 0.68584c-0.53815-0.21142-0.66704-0.44897-0.71013-1.3087l-0.03363-0.67088-0.32254-0.05944c-0.86508-0.15961-0.46095-0.60544-0.02718-0.61548 0.28536-0.0012 0.40274-0.02706 0.41678-0.26262 0.03495-0.58602 0.8683-0.61328 0.8683-0.05034 0 0.27189 0.09656 0.31384 0.7225 0.31384h0.56767l0.12901 0.11685c0.15855 0.1436 0.03069 0.33077 0.01276 0.35077l-0.1162 0.13002-0.60949 0.03075c-0.71399 0.03602-0.70399 0.0273-0.70527 0.61511-0.0017 0.81195 0.15301 0.96314 0.92504 0.90356 0.55582-0.0429 0.78473 0.0903 0.62369 0.36286-0.13756 0.23282-1.2755 0.32675-1.7413 0.14374zm-28.197-0.02143c-0.28791-0.07904-0.51339-0.24611-0.64322-0.47663l-0.07636-0.25017-0.04891-0.87698v-0.9048l0.14338-0.09094c0.17834-0.1132 0.37445-0.11613 0.53776-0.0082l0.12523 0.08281 0.03259 0.88673 0.0326 0.88672c0.03427 0.13751 0.02238 0.09896 0.06817 0.14548 0.19731 0.20085 0.97308 0.0048 1.1529-0.22738l0.10065-0.13019v-1.5453l0.14336-0.09097c0.18224-0.11563 0.36962-0.11563 0.55187 0l0.14338 0.09097v1.1249c0 1.3529-0.14837 1.6549-0.6523 1.3138l-0.16469-0.082-0.35315 0.12824c-0.39589 0.14377-0.79973 0.10412-1.0932 0.0236zm7.2152-0.0027c-1.8171-0.49558-0.90091-3.1002 0.92947-2.6424 0.32275 0.08072 0.37591 0.01204 0.37591-0.48443 0-0.5937 0.44344-0.90489 0.7494-0.52587l0.08919 0.11047v1.6201c0 1.9737-0.0077 1.9966-0.62787 1.854l-0.25742-0.05915-0.30145 0.09271c-0.32332 0.09945-0.67302 0.11206-0.95725 0.03454zm0.98413-0.61437c0.26706-0.12509 0.32125-0.25291 0.32125-0.75781v-0.44471l-0.15833-0.14341c-0.30938-0.28023-0.95596-0.15263-1.1554 0.22803-0.38474 0.73439 0.26023 1.4609 0.99247 1.1179zm2.9339 0.61552c-1.6361-0.38099-1.7063-2.1883-0.1014-2.6113 1.0289-0.27118 2.0689 0.26536 2.0689 1.0673v0.25056l-0.02335 0.18325-0.2634-0.0012h-0.95529l-1.0048-7e-3 -0.0086 0.09879c-0.0096 0.11481 0.15181 0.29577 0.41061 0.41698 0.18525 0.08676 0.48359 0.08254 1.2463-0.01758l0.26366-0.0065 0.12992 0.1144 0.0034 0.16062-0.13611 0.14707c-0.24103 0.26047-1.1112 0.32538-1.63 0.20458zm1.0644-1.8061c0-0.16007-0.27629-0.2989-0.59443-0.29865-0.30664 8.9e-5 -0.77 0.17039-0.77 0.31132l-0.04456 0.11093 0.76392-0.01324h0.64509zm1.4567 1.7771-0.10192-0.14769v-1.099c0-1.1851 0.01878-1.2592 0.33853-1.3289l0.22506 0.05657 0.27662 0.26563s0.09167 0.03527 0.45784-0.10888c0.6781-0.26692 1.4757-0.21204 1.4757 0.10152 0 0.24376-0.11028 0.30164-0.57735 0.30306-0.48341 0.0014-0.84607 0.12742-1.1108 0.38576l-0.1722 0.16803-0.02142 0.65456c-0.02334 0.71311-0.04786 0.76453-0.39054 0.81489l-0.16339 0.0098zm10.606-0.03086-0.12901-0.11685v-1.7559l-0.16548-0.05697c-0.09101-0.03133-0.24487-0.05697-0.34189-0.05697-0.22456 0-0.33124-0.09721-0.33124-0.30178 0-0.1891 0.15215-0.28211 0.46343-0.28342 0.28236-0.0012 0.3346-0.04145 0.42748-0.32966 0.16291-0.50546 0.87431-0.82728 1.6784-0.75926 1.011 0.08556 1.0401 0.59315 0.03402 0.59315l-0.50231 0.03907-0.16173 0.07458c-0.0919 0.04237-0.13024 0.16753-0.11974 0.23371l0.01902 0.12008 0.48218 0.01732c1.013 0.03666 1.0178 0.57436 0.0053 0.6217-0.61637 0.02882-0.58442-0.02562-0.58442 0.99704v0.89883l-0.14336 0.09094c-0.19757 0.12533-0.47638 0.11389-0.63072-0.02589zm-21.258-0.08498-0.15833-0.14341v-2.1671l0.12899-0.11685c0.16565-0.15003 0.32602-0.14796 0.54356 7e-3l0.17389 0.12393 0.41672-0.12393c0.52761-0.15691 0.85455-0.15657 1.2594 0.0012l0.32095 0.12509 0.17482 0.26933 0.17478 0.26935-0.01276 0.84196-0.01276 0.84197-0.0994 0.09001c-0.12176 0.11031-0.50364 0.11789-0.64349 0.01276l-0.1028-0.07725-3.32e-4 -0.67941c-3.3e-4 -1.0353-0.0991-1.2344-0.6108-1.2344-0.66561 0-0.79686 0.18965-0.82252 1.1885l-0.01758 0.69184-0.15231 0.11158c-0.20455 0.14988-0.36999 0.14052-0.56022-0.03183z" style="stroke-width:.23204"/>
  <text transform="scale(1.1949 .83688)" x="17.684435" y="85.735298" style="fill:#000000;font-family:sans-serif;font-size:13.421px;letter-spacing:0px;line-height:125%;stroke-width:.33553px;word-spacing:0px" xml:space="preserve"><tspan x="17.684435" y="85.735298" style="font-family:'Cascadia Code';font-size:4.4736px;font-variant-caps:normal;font-variant-east-asian:normal;font-variant-ligatures:normal;font-variant-numeric:normal;font-variation-settings:'wght' 300;stroke-width:.33553px">ecosystems</tspan></text>
  <path d="m31.668 59.235v-5.1373h10.439v10.274h-10.439z" style="fill:#f03;stroke-width:1.8392"/>
  <text x="30.97579" y="58.698082" style="fill:#000000;font-family:sans-serif;font-size:4.8584px;letter-spacing:0px;line-height:125%;stroke-width:.12146px;word-spacing:0px" xml:space="preserve"><tspan x="30.97579" y="58.698082" style="stroke-width:.12146px"/></text>
 </g>
</svg>
