<?xml version="1.0" encoding="UTF-8" standalone="no"?>
<svg
   width="64"
   height="64"
   version="1.1"
   viewBox="0 0 16.933649 16.932799"
   id="svg6"
   xmlns="http://www.w3.org/2000/svg"
   xmlns:svg="http://www.w3.org/2000/svg">
  <defs
     id="defs6" />
  <g
     transform="matrix(1.2753308,0,0,1.2753308,-28.694841,-52.369224)"
     id="g6">
    <path
       d="M 26.340828,43.248126 V 42.48679 l 0.751015,-5.48e-4 0.747864,-0.0065 v 1.52973 h -1.498889 z"
       style="fill:#ffcc33;stroke-width:0.133235"
       id="path2" />
    <path
       d="M 29.108777,43.41693 V 41.9808 l 1.441431,0.0061 1.462749,-4.9e-5 -0.0027,0.853563 -0.0022,0.879964 -0.565308,6.15e-4 -0.580263,-0.005 -0.0062,0.57509 -0.0062,0.566002 h -0.858173 l -0.884974,0.0051 z"
       style="fill:#33cc33;stroke-width:0.0893253"
       id="path3" />
    <path
       d="m 22.705342,47.239252 v -2.722718 h 5.445866 l -0.0062,1.210734 -0.0062,1.210734 -2.204619,0.0125 v 3.011307 h -3.228695 z"
       style="fill:#3366ff;stroke-width:0.29625"
       id="path4" />
    <path
       d="m 32.723988,47.730081 -0.0064,-0.698718 -1.552668,-0.02389 -0.0061,-1.498999 -0.0061,-1.498999 h 4.419626 v 4.419302 h -2.841935 z"
       style="fill:#9900ff;stroke-width:1.00789"
       id="path5" />
    <path
       d="m 30.364832,55.531994 c -0.317355,-0.07024 -0.412583,-0.136976 -0.370324,-0.259519 0.02758,-0.07999 0.11046,-0.08714 0.319301,-0.02754 0.312153,0.08907 0.634257,0.06913 0.634257,-0.03925 0,-0.05337 -0.07642,-0.08445 -0.360099,-0.14646 -0.615338,-0.1345 -0.784696,-0.472571 -0.329537,-0.657855 0.438801,-0.178639 1.262101,0.04476 0.883444,0.239712 l -0.07646,0.03936 -0.140559,-0.04652 c -0.176085,-0.05827 -0.426543,-0.05077 -0.470758,0.01411 -0.04348,0.06379 -0.02701,0.07157 0.327946,0.155188 0.567204,0.133615 0.729501,0.33892 0.469961,0.59459 -0.13249,0.130531 -0.590651,0.199832 -0.887216,0.1342 z m 1.510208,-0.02398 c -0.292059,-0.10827 -0.430499,-0.315973 -0.409818,-0.614875 l 0.03119,-0.167225 0.06466,-0.115388 c 0.19398,-0.346162 0.842317,-0.369815 1.16524,-0.09586 0.452442,0.383823 0.152298,1.008297 -0.497979,1.036116 l -0.210193,-0.0056 z m 0.538857,-0.297649 c 0.335337,-0.242622 -0.01136,-0.75839 -0.379573,-0.583168 -0.33545,0.159644 -0.203332,0.66273 0.175551,0.66849 l 0.113414,-0.01974 z m 2.717329,0.307343 c -0.237349,-0.09474 -0.294193,-0.201196 -0.313199,-0.586466 l -0.01483,-0.300639 -0.142256,-0.02665 c -0.381536,-0.07152 -0.2033,-0.271311 -0.01199,-0.275809 0.125854,-5.43e-4 0.177626,-0.01213 0.18382,-0.117689 0.01542,-0.26261 0.382958,-0.274824 0.382958,-0.02256 0,0.121842 0.04259,0.140639 0.318654,0.140639 h 0.250366 l 0.0569,0.05236 c 0.06993,0.06435 0.01354,0.148227 0.0056,0.157191 l -0.05126,0.05827 -0.268812,0.01378 c -0.314902,0.01614 -0.310488,0.01223 -0.311054,0.275647 -7.54e-4,0.363854 0.06749,0.431609 0.40798,0.404909 0.245143,-0.01922 0.3461,0.04046 0.275074,0.162607 -0.06067,0.104329 -0.562568,0.146425 -0.767986,0.06442 z m -12.436121,-0.0097 c -0.126981,-0.03541 -0.226429,-0.110287 -0.283688,-0.213588 l -0.03368,-0.112108 -0.02158,-0.392999 v -0.405409 l 0.06323,-0.04076 c 0.07866,-0.05072 0.165148,-0.05205 0.237176,-0.0036 l 0.05523,0.0371 0.01438,0.397366 0.01438,0.397363 c 0.01512,0.06162 0.0099,0.04436 0.03008,0.06519 0.08702,0.09 0.429173,0.0022 0.508462,-0.101894 l 0.0444,-0.05834 v -0.692405 l 0.06323,-0.04076 c 0.08038,-0.05182 0.163019,-0.05182 0.243397,0 l 0.06323,0.04076 v 0.5041 c 0,0.606257 -0.06543,0.7416 -0.287693,0.588731 l -0.07263,-0.03674 -0.155753,0.05746 c -0.174603,0.06442 -0.352715,0.04666 -0.482169,0.01055 z m 3.182229,-0.0011 c -0.801406,-0.22208 -0.39734,-1.389262 0.409936,-1.184109 0.142347,0.03617 0.165794,0.0054 0.165794,-0.217087 0,-0.266053 0.195576,-0.405502 0.330519,-0.235656 l 0.03934,0.04951 v 0.725993 c 0,0.884475 -0.0034,0.894716 -0.276919,0.830811 l -0.113532,-0.02651 -0.132953,0.04155 c -0.142596,0.04456 -0.296829,0.05022 -0.422187,0.01548 z m 0.434045,-0.275315 c 0.117785,-0.05605 0.141685,-0.113336 0.141685,-0.339592 v -0.199292 l -0.06983,-0.06427 c -0.136451,-0.125578 -0.421622,-0.06839 -0.509572,0.102185 -0.169687,0.329099 0.114772,0.654656 0.437721,0.50095 z m 1.293957,0.275832 c -0.721578,-0.170731 -0.752571,-0.980627 -0.04472,-1.170176 0.453779,-0.121521 0.912496,0.118912 0.912496,0.478291 v 0.112224 l -0.0103,0.08211 -0.116169,-5.43e-4 h -0.421325 l -0.443172,-0.0031 -0.0038,0.04427 c -0.0043,0.05145 0.06696,0.132542 0.181098,0.18686 0.0817,0.03888 0.213282,0.03699 0.549686,-0.0079 l 0.116287,-0.0029 0.05731,0.05126 0.0015,0.07198 -0.06003,0.06591 c -0.106304,0.116722 -0.490071,0.145809 -0.718882,0.09167 z m 0.469437,-0.809345 c 0,-0.07173 -0.121854,-0.133945 -0.26217,-0.133831 -0.135244,4e-5 -0.339606,0.07636 -0.339606,0.139509 l -0.01965,0.04971 0.336921,-0.006 h 0.284513 z m 0.642451,0.796347 -0.04496,-0.06619 v -0.49248 c 0,-0.531079 0.0083,-0.564261 0.149307,-0.595525 l 0.09927,0.02535 0.122001,0.119035 c 0,0 0.04043,0.0158 0.20193,-0.04879 0.299072,-0.119613 0.650859,-0.09502 0.650859,0.04549 0,0.109233 -0.04864,0.135173 -0.254635,0.135809 -0.213207,6.4e-4 -0.373154,0.0571 -0.48991,0.17287 l -0.07595,0.0753 -0.0094,0.293327 c -0.01025,0.319562 -0.02111,0.342603 -0.172247,0.365173 l -0.07206,0.0045 z m 4.677883,-0.01383 -0.0569,-0.05237 V 54.64138 l -0.07298,-0.02554 C 33.225087,54.6018 33.15723,54.5903 33.114438,54.5903 c -0.09904,0 -0.146094,-0.04356 -0.146094,-0.135234 0,-0.08473 0.06711,-0.12642 0.204394,-0.127006 0.124533,-5.43e-4 0.147571,-0.01858 0.188536,-0.147729 0.07185,-0.226508 0.38561,-0.370722 0.740227,-0.340242 0.445877,0.03834 0.458717,0.265805 0.015,0.265805 l -0.22154,0.0175 -0.07133,0.03342 c -0.04052,0.01898 -0.05744,0.07507 -0.05282,0.104734 l 0.0084,0.05381 0.212663,0.0078 c 0.446793,0.01643 0.448885,0.257385 0.0024,0.2786 -0.271846,0.01291 -0.257756,-0.01148 -0.257756,0.446798 v 0.402788 l -0.06323,0.04076 c -0.08713,0.05617 -0.210107,0.05103 -0.278174,-0.0116 z m -9.375602,-0.03808 -0.06983,-0.06427 v -0.971143 l 0.0569,-0.05236 c 0.07306,-0.06723 0.143788,-0.0663 0.239737,0.0031 l 0.0767,0.05553 0.183793,-0.05553 c 0.232697,-0.07031 0.376894,-0.07017 0.555454,5.42e-4 l 0.141555,0.05605 0.0771,0.120695 0.07709,0.120702 -0.0056,0.377303 -0.0056,0.377305 -0.04383,0.04034 c -0.05371,0.04943 -0.222127,0.05283 -0.283807,0.0057 l -0.04534,-0.03462 -1.46e-4,-0.30446 c -1.46e-4,-0.463949 -0.04371,-0.553186 -0.269388,-0.553186 -0.293563,0 -0.351453,0.08499 -0.362767,0.532607 l -0.0078,0.310032 -0.06717,0.05 c -0.09022,0.06716 -0.163181,0.06296 -0.247084,-0.01427 z"
       style="display:none;fill:#000000;stroke-width:0.103157"
       id="path1" />
    <text
       xml:space="preserve"
       style="font-style:normal;font-weight:normal;font-size:5.45902px;line-height:125%;font-family:sans-serif;letter-spacing:0px;word-spacing:0px;display:none;fill:#000000;fill-opacity:1;stroke:none;stroke-width:0.136476px;stroke-linecap:butt;stroke-linejoin:miter;stroke-opacity:1"
       x="19.018967"
       y="66.539505"
       id="text6"
       transform="scale(1.1686203,0.85570993)"><tspan
         id="tspan6"
         style="font-style:normal;font-variant:normal;font-weight:normal;font-stretch:normal;font-size:1.81967px;font-family:'Cascadia Code';-inkscape-font-specification:'Cascadia Code, @wght=300';font-variant-ligatures:normal;font-variant-caps:normal;font-variant-numeric:normal;font-variant-east-asian:normal;font-variation-settings:'wght' 300;stroke-width:0.136476px"
         x="0"
         y="0">development</tspan></text>
    <path
       d="m 26.21639,50.355194 v -3.067789 h 6.157764 v 6.135471 H 26.21639 Z"
       style="fill:#ff0033;stroke-width:1.0916"
       id="path6" />
  </g>
</svg>
